

 <svg className="score__logo" xmlns="http://www.w3.org/2000/svg" width="155.48" height="92.68" viewBox="0 0 155.48 92.68">
    <g id="logo" transform="translate(-33.32 -27.68)">
      <path id="Path_1" data-name="Path 1" d="M39.28,56a.478.478,0,0,0,.48-.48V44.6a.177.177,0,0,1,.2-.2h2.52c.08,0,.147.053.2.16L46.72,55.6a.527.527,0,0,0,.56.4h4.88q.439,0,.44-.36a.445.445,0,0,0-.04-.2L48,43.96a.191.191,0,0,1,.12-.28,6.876,6.876,0,0,0,3.16-2.8,8.509,8.509,0,0,0,1.12-4.44,9.384,9.384,0,0,0-1-4.4,7.2,7.2,0,0,0-2.84-2.98A8.259,8.259,0,0,0,44.36,28H34.6a.478.478,0,0,0-.48.48V55.52a.478.478,0,0,0,.48.48h4.68Zm4.16-15.92H39.96a.177.177,0,0,1-.2-.2V33.04a.177.177,0,0,1,.2-.2h3.48a3.141,3.141,0,0,1,2.4.98,3.731,3.731,0,0,1,.92,2.66,3.674,3.674,0,0,1-.92,2.62,3.141,3.141,0,0,1-2.4.98Zm21.2,16.28a10.287,10.287,0,0,0,4.88-1.12,7.975,7.975,0,0,0,3.28-3.16,9.469,9.469,0,0,0,1.16-4.76V36.68a9.385,9.385,0,0,0-1.16-4.72,7.975,7.975,0,0,0-3.28-3.16,10.287,10.287,0,0,0-4.88-1.12,10.169,10.169,0,0,0-4.86,1.12,8,8,0,0,0-3.26,3.16,9.385,9.385,0,0,0-1.16,4.72V47.32a9.469,9.469,0,0,0,1.16,4.76,8,8,0,0,0,3.26,3.16A10.169,10.169,0,0,0,64.64,56.36Zm0-4.84A3.4,3.4,0,0,1,62,50.42a4.086,4.086,0,0,1-1-2.86V36.52a4.143,4.143,0,0,1,1-2.9,3.4,3.4,0,0,1,2.64-1.1,3.446,3.446,0,0,1,2.68,1.1,4.143,4.143,0,0,1,1,2.9V47.56a4.086,4.086,0,0,1-1,2.86A3.446,3.446,0,0,1,64.64,51.52Zm21.76,4.8a10.427,10.427,0,0,0,4.8-1.06,7.659,7.659,0,0,0,3.22-3.02,8.825,8.825,0,0,0,1.14-4.52V47.6a.478.478,0,0,0-.48-.48l-4.68-.2q-.48,0-.48.44v.52a3.582,3.582,0,0,1-.96,2.62,3.834,3.834,0,0,1-5.12,0,3.582,3.582,0,0,1-.96-2.62V36.16a3.653,3.653,0,0,1,.96-2.64,3.777,3.777,0,0,1,5.12,0,3.653,3.653,0,0,1,.96,2.64v.52q0,.439.48.44l4.68-.2a.436.436,0,0,0,.34-.16.533.533,0,0,0,.14-.36v-.2a8.609,8.609,0,0,0-1.14-4.48,7.738,7.738,0,0,0-3.22-2.98,10.427,10.427,0,0,0-4.8-1.06,10.271,10.271,0,0,0-4.8,1.08,7.75,7.75,0,0,0-3.22,3.06,9.015,9.015,0,0,0-1.14,4.58V47.52a9.206,9.206,0,0,0,1.14,4.64,7.716,7.716,0,0,0,3.22,3.08A10.271,10.271,0,0,0,86.4,56.32ZM104.32,56a.478.478,0,0,0,.48-.48v-8a.623.623,0,0,1,.08-.24l1.8-2.6c.053-.08.107-.12.16-.12s.093.04.12.12l5.68,10.96a.617.617,0,0,0,.56.36h5.12q.439,0,.44-.32a.614.614,0,0,0-.08-.24l-7.84-15.12a.5.5,0,0,1,0-.28l7.4-11.48a.357.357,0,0,0,.06-.4.412.412,0,0,0-.38-.16h-5.16a.627.627,0,0,0-.56.32L105.04,39.2c-.027.08-.073.107-.14.08a.156.156,0,0,1-.1-.16V28.48a.478.478,0,0,0-.48-.48H99.64a.478.478,0,0,0-.48.48V55.52a.478.478,0,0,0,.48.48h4.68ZM39.16,88a.478.478,0,0,0,.48-.48V77.12a.177.177,0,0,1,.2-.2h4.32a8.583,8.583,0,0,0,4.26-1.04,7.2,7.2,0,0,0,2.88-2.94,9.12,9.12,0,0,0,1.02-4.38,9.564,9.564,0,0,0-1.02-4.48,7.366,7.366,0,0,0-2.88-3.04,8.327,8.327,0,0,0-4.26-1.08H34.48a.478.478,0,0,0-.48.48V87.52a.478.478,0,0,0,.48.48h4.68Zm4.08-15.56h-3.4a.177.177,0,0,1-.2-.2v-7.2a.177.177,0,0,1,.2-.2h3.4a3.208,3.208,0,0,1,2.5,1.04,4.017,4.017,0,0,1,.94,2.8,3.883,3.883,0,0,1-.94,2.74,3.237,3.237,0,0,1-2.5,1.02ZM59.36,88a.5.5,0,0,0,.52-.4l.92-3.92a.189.189,0,0,1,.2-.16h7.48a.189.189,0,0,1,.2.16l.92,3.92a.527.527,0,0,0,.56.4h4.88q.439,0,.44-.36l-.04-.16L68.24,60.4a.527.527,0,0,0-.56-.4h-5.8a.527.527,0,0,0-.56.4l-7.2,27.08q-.12.521.4.52h4.84Zm8-8.84H62.08a.266.266,0,0,1-.16-.06.146.146,0,0,1-.04-.18l2.68-11.6c.027-.107.067-.16.12-.16s.093.053.12.16l2.76,11.6a.146.146,0,0,1-.04.18A.266.266,0,0,1,67.36,79.16ZM83.48,88a.478.478,0,0,0,.48-.48V77.12a.177.177,0,0,1,.2-.2h4.32a8.583,8.583,0,0,0,4.26-1.04,7.2,7.2,0,0,0,2.88-2.94,9.12,9.12,0,0,0,1.02-4.38,9.564,9.564,0,0,0-1.02-4.48,7.366,7.366,0,0,0-2.88-3.04,8.327,8.327,0,0,0-4.26-1.08H78.8a.478.478,0,0,0-.48.48V87.52a.478.478,0,0,0,.48.48h4.68Zm4.08-15.56h-3.4a.177.177,0,0,1-.2-.2v-7.2a.177.177,0,0,1,.2-.2h3.4a3.208,3.208,0,0,1,2.5,1.04,4.017,4.017,0,0,1,.94,2.8,3.883,3.883,0,0,1-.94,2.74,3.237,3.237,0,0,1-2.5,1.02ZM116.24,88a.478.478,0,0,0,.48-.48V83.64a.478.478,0,0,0-.48-.48H105.52a.177.177,0,0,1-.2-.2V76.52a.177.177,0,0,1,.2-.2h6.68a.478.478,0,0,0,.48-.48V71.96a.478.478,0,0,0-.48-.48h-6.68a.177.177,0,0,1-.2-.2V65.04a.177.177,0,0,1,.2-.2h10.72a.478.478,0,0,0,.48-.48V60.48a.478.478,0,0,0-.48-.48H100.16a.478.478,0,0,0-.48.48V87.52a.478.478,0,0,0,.48.48h16.08Zm9.04,0a.478.478,0,0,0,.48-.48V76.6a.177.177,0,0,1,.2-.2h2.52c.08,0,.147.053.2.16l4.04,11.04a.527.527,0,0,0,.56.4h4.88q.439,0,.44-.36a.445.445,0,0,0-.04-.2L134,75.96a.191.191,0,0,1,.12-.28,6.876,6.876,0,0,0,3.16-2.8,8.509,8.509,0,0,0,1.12-4.44,9.384,9.384,0,0,0-1-4.4,7.2,7.2,0,0,0-2.84-2.98,8.259,8.259,0,0,0-4.2-1.06H120.6a.478.478,0,0,0-.48.48V87.52a.478.478,0,0,0,.48.48h4.68Zm4.16-15.92h-3.48a.177.177,0,0,1-.2-.2V65.04a.177.177,0,0,1,.2-.2h3.48a3.141,3.141,0,0,1,2.4.98,3.731,3.731,0,0,1,.92,2.66,3.674,3.674,0,0,1-.92,2.62,3.141,3.141,0,0,1-2.4.98ZM42.52,120.32a9.61,9.61,0,0,0,6.54-2.14,7.27,7.27,0,0,0,2.46-5.78,6.547,6.547,0,0,0-.88-3.48,8.124,8.124,0,0,0-2.18-2.38,36.386,36.386,0,0,0-3.62-2.22l-.84-.48q-2.04-1-3.04-1.62a5,5,0,0,1-1.48-1.3,2.7,2.7,0,0,1-.48-1.6,2.631,2.631,0,0,1,.82-2.06,3.253,3.253,0,0,1,2.26-.74,3.764,3.764,0,0,1,2.72.96,3.188,3.188,0,0,1,1,2.4v.72a.478.478,0,0,0,.48.48h4.6a.478.478,0,0,0,.48-.48v-.8a7.614,7.614,0,0,0-4.4-7.1,11.574,11.574,0,0,0-9.32-.08,7.182,7.182,0,0,0-3.1,2.68,7.437,7.437,0,0,0-1.1,4.06,7.038,7.038,0,0,0,1.08,3.96,9.6,9.6,0,0,0,2.6,2.68,34,34,0,0,0,3.92,2.24q1.96,1,2.9,1.58a5.533,5.533,0,0,1,1.46,1.24,2.474,2.474,0,0,1,.52,1.58,2.725,2.725,0,0,1-.82,2.04,3.274,3.274,0,0,1-2.38.8,4.017,4.017,0,0,1-2.8-.94,3.027,3.027,0,0,1-1.04-2.34v-.76a.478.478,0,0,0-.48-.48H33.8a.478.478,0,0,0-.48.48v1.04a7.436,7.436,0,0,0,1.14,4.1,7.519,7.519,0,0,0,3.22,2.76,11.249,11.249,0,0,0,4.84.98Zm21.08,0a10.427,10.427,0,0,0,4.8-1.06,7.659,7.659,0,0,0,3.22-3.02,8.825,8.825,0,0,0,1.14-4.52v-.12a.478.478,0,0,0-.48-.48l-4.68-.2q-.48,0-.48.44v.52a3.582,3.582,0,0,1-.96,2.62,3.834,3.834,0,0,1-5.12,0,3.582,3.582,0,0,1-.96-2.62V100.16a3.653,3.653,0,0,1,.96-2.64,3.777,3.777,0,0,1,5.12,0,3.653,3.653,0,0,1,.96,2.64v.52q0,.439.48.44l4.68-.2a.436.436,0,0,0,.34-.16.533.533,0,0,0,.14-.36v-.2a8.609,8.609,0,0,0-1.14-4.48,7.738,7.738,0,0,0-3.22-2.98,10.427,10.427,0,0,0-4.8-1.06,10.271,10.271,0,0,0-4.8,1.08,7.75,7.75,0,0,0-3.22,3.06,9.015,9.015,0,0,0-1.14,4.58v11.12a9.206,9.206,0,0,0,1.14,4.64,7.716,7.716,0,0,0,3.22,3.08,10.271,10.271,0,0,0,4.8,1.08ZM81.52,120a.478.478,0,0,0,.48-.48V92.48a.478.478,0,0,0-.48-.48H76.84a.478.478,0,0,0-.48.48v27.04a.478.478,0,0,0,.48.48h4.68Zm13.08.32a9.61,9.61,0,0,0,6.54-2.14,7.27,7.27,0,0,0,2.46-5.78,6.547,6.547,0,0,0-.88-3.48,8.124,8.124,0,0,0-2.18-2.38,36.386,36.386,0,0,0-3.62-2.22l-.84-.48q-2.04-1-3.04-1.62a5,5,0,0,1-1.48-1.3,2.7,2.7,0,0,1-.48-1.6,2.632,2.632,0,0,1,.82-2.06,3.253,3.253,0,0,1,2.26-.74,3.764,3.764,0,0,1,2.72.96,3.188,3.188,0,0,1,1,2.4v.72a.478.478,0,0,0,.48.48h4.6a.478.478,0,0,0,.48-.48v-.8a7.614,7.614,0,0,0-4.4-7.1,11.574,11.574,0,0,0-9.32-.08,7.182,7.182,0,0,0-3.1,2.68,7.437,7.437,0,0,0-1.1,4.06,7.038,7.038,0,0,0,1.08,3.96A9.6,9.6,0,0,0,89.2,106a34,34,0,0,0,3.92,2.24q1.96,1,2.9,1.58a5.533,5.533,0,0,1,1.46,1.24,2.474,2.474,0,0,1,.52,1.58,2.725,2.725,0,0,1-.82,2.04,3.274,3.274,0,0,1-2.38.8,4.017,4.017,0,0,1-2.8-.94,3.027,3.027,0,0,1-1.04-2.34v-.76a.478.478,0,0,0-.48-.48h-4.6a.478.478,0,0,0-.48.48v1.04a7.436,7.436,0,0,0,1.14,4.1,7.519,7.519,0,0,0,3.22,2.76,11.249,11.249,0,0,0,4.84.98Zm20.8,0a9.61,9.61,0,0,0,6.54-2.14,7.27,7.27,0,0,0,2.46-5.78,6.547,6.547,0,0,0-.88-3.48,8.124,8.124,0,0,0-2.18-2.38,36.385,36.385,0,0,0-3.62-2.22l-.84-.48q-2.04-1-3.04-1.62a5,5,0,0,1-1.48-1.3,2.7,2.7,0,0,1-.48-1.6,2.632,2.632,0,0,1,.82-2.06,3.253,3.253,0,0,1,2.26-.74,3.764,3.764,0,0,1,2.72.96,3.188,3.188,0,0,1,1,2.4v.72a.478.478,0,0,0,.48.48h4.6a.478.478,0,0,0,.48-.48v-.8a7.614,7.614,0,0,0-4.4-7.1,11.574,11.574,0,0,0-9.32-.08,7.182,7.182,0,0,0-3.1,2.68,7.437,7.437,0,0,0-1.1,4.06,7.038,7.038,0,0,0,1.08,3.96A9.6,9.6,0,0,0,110,106a34,34,0,0,0,3.92,2.24q1.96,1,2.9,1.58a5.533,5.533,0,0,1,1.46,1.24,2.474,2.474,0,0,1,.52,1.58,2.725,2.725,0,0,1-.82,2.04,3.274,3.274,0,0,1-2.38.8,4.017,4.017,0,0,1-2.8-.94,3.027,3.027,0,0,1-1.04-2.34v-.76a.478.478,0,0,0-.48-.48h-4.6a.478.478,0,0,0-.48.48v1.04a7.436,7.436,0,0,0,1.14,4.1,7.519,7.519,0,0,0,3.22,2.76,11.249,11.249,0,0,0,4.84.98Zm21.2.04a10.287,10.287,0,0,0,4.88-1.12,7.975,7.975,0,0,0,3.28-3.16,9.469,9.469,0,0,0,1.16-4.76V100.68a9.385,9.385,0,0,0-1.16-4.72,7.975,7.975,0,0,0-3.28-3.16,10.287,10.287,0,0,0-4.88-1.12,10.169,10.169,0,0,0-4.86,1.12,8,8,0,0,0-3.26,3.16,9.385,9.385,0,0,0-1.16,4.72v10.64a9.469,9.469,0,0,0,1.16,4.76,8,8,0,0,0,3.26,3.16A10.169,10.169,0,0,0,136.6,120.36Zm0-4.84a3.4,3.4,0,0,1-2.64-1.1,4.086,4.086,0,0,1-1-2.86V100.52a4.143,4.143,0,0,1,1-2.9,3.4,3.4,0,0,1,2.64-1.1,3.446,3.446,0,0,1,2.68,1.1,4.143,4.143,0,0,1,1,2.9v11.04a4.086,4.086,0,0,1-1,2.86A3.446,3.446,0,0,1,136.6,115.52ZM154.84,120a.478.478,0,0,0,.48-.48V108.6a.177.177,0,0,1,.2-.2h2.52c.08,0,.147.053.2.16l4.04,11.04a.527.527,0,0,0,.56.4h4.88q.439,0,.44-.36a.445.445,0,0,0-.04-.2l-4.56-11.48a.191.191,0,0,1,.12-.28,6.876,6.876,0,0,0,3.16-2.8,8.509,8.509,0,0,0,1.12-4.44,9.384,9.384,0,0,0-1-4.4,7.2,7.2,0,0,0-2.84-2.98,8.259,8.259,0,0,0-4.2-1.06h-9.76a.478.478,0,0,0-.48.48v27.04a.478.478,0,0,0,.48.48h4.68ZM159,104.08h-3.48a.177.177,0,0,1-.2-.2V97.04a.177.177,0,0,1,.2-.2H159a3.141,3.141,0,0,1,2.4.98,3.731,3.731,0,0,1,.92,2.66,3.674,3.674,0,0,1-.92,2.62,3.141,3.141,0,0,1-2.4.98Zm20.8,16.24a9.61,9.61,0,0,0,6.54-2.14,7.27,7.27,0,0,0,2.46-5.78,6.547,6.547,0,0,0-.88-3.48,8.124,8.124,0,0,0-2.18-2.38,36.387,36.387,0,0,0-3.62-2.22l-.84-.48q-2.04-1-3.04-1.62a5,5,0,0,1-1.48-1.3,2.7,2.7,0,0,1-.48-1.6,2.631,2.631,0,0,1,.82-2.06,3.253,3.253,0,0,1,2.26-.74,3.764,3.764,0,0,1,2.72.96,3.188,3.188,0,0,1,1,2.4v.72a.478.478,0,0,0,.48.48h4.6a.478.478,0,0,0,.48-.48v-.8a7.614,7.614,0,0,0-4.4-7.1,11.574,11.574,0,0,0-9.32-.08,7.182,7.182,0,0,0-3.1,2.68,7.437,7.437,0,0,0-1.1,4.06,7.038,7.038,0,0,0,1.08,3.96,9.6,9.6,0,0,0,2.6,2.68,34,34,0,0,0,3.92,2.24q1.961,1,2.9,1.58a5.533,5.533,0,0,1,1.46,1.24,2.474,2.474,0,0,1,.52,1.58,2.725,2.725,0,0,1-.82,2.04,3.274,3.274,0,0,1-2.38.8,4.017,4.017,0,0,1-2.8-.94,3.027,3.027,0,0,1-1.04-2.34v-.76a.478.478,0,0,0-.48-.48h-4.6a.478.478,0,0,0-.48.48v1.04a7.436,7.436,0,0,0,1.14,4.1,7.519,7.519,0,0,0,3.22,2.76,11.249,11.249,0,0,0,4.84.98Z"/>
      <path id="Path_2" data-name="Path 2" d="M39.28,56a.478.478,0,0,0,.48-.48V44.6a.177.177,0,0,1,.2-.2h2.52c.08,0,.147.053.2.16L46.72,55.6a.527.527,0,0,0,.56.4h4.88q.439,0,.44-.36a.445.445,0,0,0-.04-.2L48,43.96a.191.191,0,0,1,.12-.28,6.876,6.876,0,0,0,3.16-2.8,8.509,8.509,0,0,0,1.12-4.44,9.384,9.384,0,0,0-1-4.4,7.2,7.2,0,0,0-2.84-2.98A8.259,8.259,0,0,0,44.36,28H34.6a.478.478,0,0,0-.48.48V55.52a.478.478,0,0,0,.48.48h4.68Zm4.16-15.92H39.96a.177.177,0,0,1-.2-.2V33.04a.177.177,0,0,1,.2-.2h3.48a3.141,3.141,0,0,1,2.4.98,3.731,3.731,0,0,1,.92,2.66,3.674,3.674,0,0,1-.92,2.62,3.141,3.141,0,0,1-2.4.98Zm21.2,16.28a10.287,10.287,0,0,0,4.88-1.12,7.975,7.975,0,0,0,3.28-3.16,9.469,9.469,0,0,0,1.16-4.76V36.68a9.385,9.385,0,0,0-1.16-4.72,7.975,7.975,0,0,0-3.28-3.16,10.287,10.287,0,0,0-4.88-1.12,10.169,10.169,0,0,0-4.86,1.12,8,8,0,0,0-3.26,3.16,9.385,9.385,0,0,0-1.16,4.72V47.32a9.469,9.469,0,0,0,1.16,4.76,8,8,0,0,0,3.26,3.16A10.169,10.169,0,0,0,64.64,56.36Zm0-4.84A3.4,3.4,0,0,1,62,50.42a4.086,4.086,0,0,1-1-2.86V36.52a4.143,4.143,0,0,1,1-2.9,3.4,3.4,0,0,1,2.64-1.1,3.446,3.446,0,0,1,2.68,1.1,4.143,4.143,0,0,1,1,2.9V47.56a4.086,4.086,0,0,1-1,2.86A3.446,3.446,0,0,1,64.64,51.52Zm21.76,4.8a10.427,10.427,0,0,0,4.8-1.06,7.659,7.659,0,0,0,3.22-3.02,8.825,8.825,0,0,0,1.14-4.52V47.6a.478.478,0,0,0-.48-.48l-4.68-.2q-.48,0-.48.44v.52a3.582,3.582,0,0,1-.96,2.62,3.834,3.834,0,0,1-5.12,0,3.582,3.582,0,0,1-.96-2.62V36.16a3.653,3.653,0,0,1,.96-2.64,3.777,3.777,0,0,1,5.12,0,3.653,3.653,0,0,1,.96,2.64v.52q0,.439.48.44l4.68-.2a.436.436,0,0,0,.34-.16.533.533,0,0,0,.14-.36v-.2a8.609,8.609,0,0,0-1.14-4.48,7.738,7.738,0,0,0-3.22-2.98,10.427,10.427,0,0,0-4.8-1.06,10.271,10.271,0,0,0-4.8,1.08,7.75,7.75,0,0,0-3.22,3.06,9.015,9.015,0,0,0-1.14,4.58V47.52a9.206,9.206,0,0,0,1.14,4.64,7.716,7.716,0,0,0,3.22,3.08A10.271,10.271,0,0,0,86.4,56.32ZM104.32,56a.478.478,0,0,0,.48-.48v-8a.623.623,0,0,1,.08-.24l1.8-2.6c.053-.08.107-.12.16-.12s.093.04.12.12l5.68,10.96a.617.617,0,0,0,.56.36h5.12q.439,0,.44-.32a.614.614,0,0,0-.08-.24l-7.84-15.12a.5.5,0,0,1,0-.28l7.4-11.48a.357.357,0,0,0,.06-.4.412.412,0,0,0-.38-.16h-5.16a.627.627,0,0,0-.56.32L105.04,39.2c-.027.08-.073.107-.14.08a.156.156,0,0,1-.1-.16V28.48a.478.478,0,0,0-.48-.48H99.64a.478.478,0,0,0-.48.48V55.52a.478.478,0,0,0,.48.48h4.68ZM39.16,88a.478.478,0,0,0,.48-.48V77.12a.177.177,0,0,1,.2-.2h4.32a8.583,8.583,0,0,0,4.26-1.04,7.2,7.2,0,0,0,2.88-2.94,9.12,9.12,0,0,0,1.02-4.38,9.564,9.564,0,0,0-1.02-4.48,7.366,7.366,0,0,0-2.88-3.04,8.327,8.327,0,0,0-4.26-1.08H34.48a.478.478,0,0,0-.48.48V87.52a.478.478,0,0,0,.48.48h4.68Zm4.08-15.56h-3.4a.177.177,0,0,1-.2-.2v-7.2a.177.177,0,0,1,.2-.2h3.4a3.208,3.208,0,0,1,2.5,1.04,4.017,4.017,0,0,1,.94,2.8,3.883,3.883,0,0,1-.94,2.74,3.237,3.237,0,0,1-2.5,1.02ZM59.36,88a.5.5,0,0,0,.52-.4l.92-3.92a.189.189,0,0,1,.2-.16h7.48a.189.189,0,0,1,.2.16l.92,3.92a.527.527,0,0,0,.56.4h4.88q.439,0,.44-.36l-.04-.16L68.24,60.4a.527.527,0,0,0-.56-.4h-5.8a.527.527,0,0,0-.56.4l-7.2,27.08q-.12.521.4.52h4.84Zm8-8.84H62.08a.266.266,0,0,1-.16-.06.146.146,0,0,1-.04-.18l2.68-11.6c.027-.107.067-.16.12-.16s.093.053.12.16l2.76,11.6a.146.146,0,0,1-.04.18A.266.266,0,0,1,67.36,79.16ZM83.48,88a.478.478,0,0,0,.48-.48V77.12a.177.177,0,0,1,.2-.2h4.32a8.583,8.583,0,0,0,4.26-1.04,7.2,7.2,0,0,0,2.88-2.94,9.12,9.12,0,0,0,1.02-4.38,9.564,9.564,0,0,0-1.02-4.48,7.366,7.366,0,0,0-2.88-3.04,8.327,8.327,0,0,0-4.26-1.08H78.8a.478.478,0,0,0-.48.48V87.52a.478.478,0,0,0,.48.48h4.68Zm4.08-15.56h-3.4a.177.177,0,0,1-.2-.2v-7.2a.177.177,0,0,1,.2-.2h3.4a3.208,3.208,0,0,1,2.5,1.04,4.017,4.017,0,0,1,.94,2.8,3.883,3.883,0,0,1-.94,2.74,3.237,3.237,0,0,1-2.5,1.02ZM116.24,88a.478.478,0,0,0,.48-.48V83.64a.478.478,0,0,0-.48-.48H105.52a.177.177,0,0,1-.2-.2V76.52a.177.177,0,0,1,.2-.2h6.68a.478.478,0,0,0,.48-.48V71.96a.478.478,0,0,0-.48-.48h-6.68a.177.177,0,0,1-.2-.2V65.04a.177.177,0,0,1,.2-.2h10.72a.478.478,0,0,0,.48-.48V60.48a.478.478,0,0,0-.48-.48H100.16a.478.478,0,0,0-.48.48V87.52a.478.478,0,0,0,.48.48h16.08Zm9.04,0a.478.478,0,0,0,.48-.48V76.6a.177.177,0,0,1,.2-.2h2.52c.08,0,.147.053.2.16l4.04,11.04a.527.527,0,0,0,.56.4h4.88q.439,0,.44-.36a.445.445,0,0,0-.04-.2L134,75.96a.191.191,0,0,1,.12-.28,6.876,6.876,0,0,0,3.16-2.8,8.509,8.509,0,0,0,1.12-4.44,9.384,9.384,0,0,0-1-4.4,7.2,7.2,0,0,0-2.84-2.98,8.259,8.259,0,0,0-4.2-1.06H120.6a.478.478,0,0,0-.48.48V87.52a.478.478,0,0,0,.48.48h4.68Zm4.16-15.92h-3.48a.177.177,0,0,1-.2-.2V65.04a.177.177,0,0,1,.2-.2h3.48a3.141,3.141,0,0,1,2.4.98,3.731,3.731,0,0,1,.92,2.66,3.674,3.674,0,0,1-.92,2.62,3.141,3.141,0,0,1-2.4.98ZM42.52,120.32a9.61,9.61,0,0,0,6.54-2.14,7.27,7.27,0,0,0,2.46-5.78,6.547,6.547,0,0,0-.88-3.48,8.124,8.124,0,0,0-2.18-2.38,36.386,36.386,0,0,0-3.62-2.22l-.84-.48q-2.04-1-3.04-1.62a5,5,0,0,1-1.48-1.3,2.7,2.7,0,0,1-.48-1.6,2.631,2.631,0,0,1,.82-2.06,3.253,3.253,0,0,1,2.26-.74,3.764,3.764,0,0,1,2.72.96,3.188,3.188,0,0,1,1,2.4v.72a.478.478,0,0,0,.48.48h4.6a.478.478,0,0,0,.48-.48v-.8a7.614,7.614,0,0,0-4.4-7.1,11.574,11.574,0,0,0-9.32-.08,7.182,7.182,0,0,0-3.1,2.68,7.437,7.437,0,0,0-1.1,4.06,7.038,7.038,0,0,0,1.08,3.96,9.6,9.6,0,0,0,2.6,2.68,34,34,0,0,0,3.92,2.24q1.96,1,2.9,1.58a5.533,5.533,0,0,1,1.46,1.24,2.474,2.474,0,0,1,.52,1.58,2.725,2.725,0,0,1-.82,2.04,3.274,3.274,0,0,1-2.38.8,4.017,4.017,0,0,1-2.8-.94,3.027,3.027,0,0,1-1.04-2.34v-.76a.478.478,0,0,0-.48-.48H33.8a.478.478,0,0,0-.48.48v1.04a7.436,7.436,0,0,0,1.14,4.1,7.519,7.519,0,0,0,3.22,2.76,11.249,11.249,0,0,0,4.84.98Zm21.08,0a10.427,10.427,0,0,0,4.8-1.06,7.659,7.659,0,0,0,3.22-3.02,8.825,8.825,0,0,0,1.14-4.52v-.12a.478.478,0,0,0-.48-.48l-4.68-.2q-.48,0-.48.44v.52a3.582,3.582,0,0,1-.96,2.62,3.834,3.834,0,0,1-5.12,0,3.582,3.582,0,0,1-.96-2.62V100.16a3.653,3.653,0,0,1,.96-2.64,3.777,3.777,0,0,1,5.12,0,3.653,3.653,0,0,1,.96,2.64v.52q0,.439.48.44l4.68-.2a.436.436,0,0,0,.34-.16.533.533,0,0,0,.14-.36v-.2a8.609,8.609,0,0,0-1.14-4.48,7.738,7.738,0,0,0-3.22-2.98,10.427,10.427,0,0,0-4.8-1.06,10.271,10.271,0,0,0-4.8,1.08,7.75,7.75,0,0,0-3.22,3.06,9.015,9.015,0,0,0-1.14,4.58v11.12a9.206,9.206,0,0,0,1.14,4.64,7.716,7.716,0,0,0,3.22,3.08,10.271,10.271,0,0,0,4.8,1.08ZM81.52,120a.478.478,0,0,0,.48-.48V92.48a.478.478,0,0,0-.48-.48H76.84a.478.478,0,0,0-.48.48v27.04a.478.478,0,0,0,.48.48h4.68Zm13.08.32a9.61,9.61,0,0,0,6.54-2.14,7.27,7.27,0,0,0,2.46-5.78,6.547,6.547,0,0,0-.88-3.48,8.124,8.124,0,0,0-2.18-2.38,36.386,36.386,0,0,0-3.62-2.22l-.84-.48q-2.04-1-3.04-1.62a5,5,0,0,1-1.48-1.3,2.7,2.7,0,0,1-.48-1.6,2.632,2.632,0,0,1,.82-2.06,3.253,3.253,0,0,1,2.26-.74,3.764,3.764,0,0,1,2.72.96,3.188,3.188,0,0,1,1,2.4v.72a.478.478,0,0,0,.48.48h4.6a.478.478,0,0,0,.48-.48v-.8a7.614,7.614,0,0,0-4.4-7.1,11.574,11.574,0,0,0-9.32-.08,7.182,7.182,0,0,0-3.1,2.68,7.437,7.437,0,0,0-1.1,4.06,7.038,7.038,0,0,0,1.08,3.96A9.6,9.6,0,0,0,89.2,106a34,34,0,0,0,3.92,2.24q1.96,1,2.9,1.58a5.533,5.533,0,0,1,1.46,1.24,2.474,2.474,0,0,1,.52,1.58,2.725,2.725,0,0,1-.82,2.04,3.274,3.274,0,0,1-2.38.8,4.017,4.017,0,0,1-2.8-.94,3.027,3.027,0,0,1-1.04-2.34v-.76a.478.478,0,0,0-.48-.48h-4.6a.478.478,0,0,0-.48.48v1.04a7.436,7.436,0,0,0,1.14,4.1,7.519,7.519,0,0,0,3.22,2.76,11.249,11.249,0,0,0,4.84.98Zm20.8,0a9.61,9.61,0,0,0,6.54-2.14,7.27,7.27,0,0,0,2.46-5.78,6.547,6.547,0,0,0-.88-3.48,8.124,8.124,0,0,0-2.18-2.38,36.385,36.385,0,0,0-3.62-2.22l-.84-.48q-2.04-1-3.04-1.62a5,5,0,0,1-1.48-1.3,2.7,2.7,0,0,1-.48-1.6,2.632,2.632,0,0,1,.82-2.06,3.253,3.253,0,0,1,2.26-.74,3.764,3.764,0,0,1,2.72.96,3.188,3.188,0,0,1,1,2.4v.72a.478.478,0,0,0,.48.48h4.6a.478.478,0,0,0,.48-.48v-.8a7.614,7.614,0,0,0-4.4-7.1,11.574,11.574,0,0,0-9.32-.08,7.182,7.182,0,0,0-3.1,2.68,7.437,7.437,0,0,0-1.1,4.06,7.038,7.038,0,0,0,1.08,3.96A9.6,9.6,0,0,0,110,106a34,34,0,0,0,3.92,2.24q1.96,1,2.9,1.58a5.533,5.533,0,0,1,1.46,1.24,2.474,2.474,0,0,1,.52,1.58,2.725,2.725,0,0,1-.82,2.04,3.274,3.274,0,0,1-2.38.8,4.017,4.017,0,0,1-2.8-.94,3.027,3.027,0,0,1-1.04-2.34v-.76a.478.478,0,0,0-.48-.48h-4.6a.478.478,0,0,0-.48.48v1.04a7.436,7.436,0,0,0,1.14,4.1,7.519,7.519,0,0,0,3.22,2.76,11.249,11.249,0,0,0,4.84.98Zm21.2.04a10.287,10.287,0,0,0,4.88-1.12,7.975,7.975,0,0,0,3.28-3.16,9.469,9.469,0,0,0,1.16-4.76V100.68a9.385,9.385,0,0,0-1.16-4.72,7.975,7.975,0,0,0-3.28-3.16,10.287,10.287,0,0,0-4.88-1.12,10.169,10.169,0,0,0-4.86,1.12,8,8,0,0,0-3.26,3.16,9.385,9.385,0,0,0-1.16,4.72v10.64a9.469,9.469,0,0,0,1.16,4.76,8,8,0,0,0,3.26,3.16A10.169,10.169,0,0,0,136.6,120.36Zm0-4.84a3.4,3.4,0,0,1-2.64-1.1,4.086,4.086,0,0,1-1-2.86V100.52a4.143,4.143,0,0,1,1-2.9,3.4,3.4,0,0,1,2.64-1.1,3.446,3.446,0,0,1,2.68,1.1,4.143,4.143,0,0,1,1,2.9v11.04a4.086,4.086,0,0,1-1,2.86A3.446,3.446,0,0,1,136.6,115.52ZM154.84,120a.478.478,0,0,0,.48-.48V108.6a.177.177,0,0,1,.2-.2h2.52c.08,0,.147.053.2.16l4.04,11.04a.527.527,0,0,0,.56.4h4.88q.439,0,.44-.36a.445.445,0,0,0-.04-.2l-4.56-11.48a.191.191,0,0,1,.12-.28,6.876,6.876,0,0,0,3.16-2.8,8.509,8.509,0,0,0,1.12-4.44,9.384,9.384,0,0,0-1-4.4,7.2,7.2,0,0,0-2.84-2.98,8.259,8.259,0,0,0-4.2-1.06h-9.76a.478.478,0,0,0-.48.48v27.04a.478.478,0,0,0,.48.48h4.68ZM159,104.08h-3.48a.177.177,0,0,1-.2-.2V97.04a.177.177,0,0,1,.2-.2H159a3.141,3.141,0,0,1,2.4.98,3.731,3.731,0,0,1,.92,2.66,3.674,3.674,0,0,1-.92,2.62,3.141,3.141,0,0,1-2.4.98Zm20.8,16.24a9.61,9.61,0,0,0,6.54-2.14,7.27,7.27,0,0,0,2.46-5.78,6.547,6.547,0,0,0-.88-3.48,8.124,8.124,0,0,0-2.18-2.38,36.387,36.387,0,0,0-3.62-2.22l-.84-.48q-2.04-1-3.04-1.62a5,5,0,0,1-1.48-1.3,2.7,2.7,0,0,1-.48-1.6,2.631,2.631,0,0,1,.82-2.06,3.253,3.253,0,0,1,2.26-.74,3.764,3.764,0,0,1,2.72.96,3.188,3.188,0,0,1,1,2.4v.72a.478.478,0,0,0,.48.48h4.6a.478.478,0,0,0,.48-.48v-.8a7.614,7.614,0,0,0-4.4-7.1,11.574,11.574,0,0,0-9.32-.08,7.182,7.182,0,0,0-3.1,2.68,7.437,7.437,0,0,0-1.1,4.06,7.038,7.038,0,0,0,1.08,3.96,9.6,9.6,0,0,0,2.6,2.68,34,34,0,0,0,3.92,2.24q1.961,1,2.9,1.58a5.533,5.533,0,0,1,1.46,1.24,2.474,2.474,0,0,1,.52,1.58,2.725,2.725,0,0,1-.82,2.04,3.274,3.274,0,0,1-2.38.8,4.017,4.017,0,0,1-2.8-.94,3.027,3.027,0,0,1-1.04-2.34v-.76a.478.478,0,0,0-.48-.48h-4.6a.478.478,0,0,0-.48.48v1.04a7.436,7.436,0,0,0,1.14,4.1,7.519,7.519,0,0,0,3.22,2.76,11.249,11.249,0,0,0,4.84.98Z" fill="#fff"/>
    </g>
  </svg>